<svg width="196" height="196" viewBox="0 0 196 196" fill="none" xmlns="http://www.w3.org/2000/svg">
<path d="M174.218 155.473C174.481 155.474 179.499 152.467 185.368 148.791C191.238 145.115 195.925 141.888 195.785 141.621C195.644 141.353 192.825 137.547 189.52 133.162C182.883 124.355 176.495 112.714 173.663 104.269C164.84 77.9491 168.901 50.6184 184.913 28.5575L188.991 22.9396L181.229 15.1773L173.466 7.41436L168.335 11.0709C134.719 35.0277 94.428 32.2712 58.7069 3.57168C56.3745 1.69745 54.3802 0.25105 54.2748 0.356496C53.3039 1.32738 41.0941 21.2909 41.097 21.9023C41.0991 22.3443 43.2345 24.1525 45.8422 25.919C74.7158 45.4827 107.752 51.8614 133.288 42.8052L139.414 40.6329L54.2505 126.106L0.398984 180.154L16.1087 195.864L70.2956 141.873L155.568 56.9118L152.984 64.8037C146.28 85.2767 149.026 109.54 160.817 134.002C164.175 140.971 173.224 155.468 174.218 155.473Z" fill="white"/>
</svg>
